<svg width="129px" height="129px" viewBox="0 0 165.12 165.12" class="icon" version="1.1" xmlns="http://www.w3.org/2000/svg"><path d="M82.641 68.354c-2.177 -3.435 -3.032 -6.16 -6.24 -6.16H35.233c-3.193 0 -5.789 2.596 -5.789 5.789v41.78h124.598s0 -15.819 -28.59 -19.624c-23.381 -3.112 -45.505 -14.19 -45.505 -32.54" fill="#F07067"/><path d="M42.038 83.64a10.143 10.143 0 1 0 20.285 0 10.143 10.143 0 1 0 -20.285 0" fill="#CDE9E3"/><path d="M156.929 118.47c0 1.596 -1.29 2.902 -2.902 2.902H29.428c-1.596 0 -2.902 -1.29 -2.902 -2.902v-5.789c0 -1.596 1.29 -2.902 2.902 -2.902h124.598c1.596 0 2.902 1.29 2.902 2.902z" fill="#EDEDED"/><path d="M52.181 70.595c-7.192 0 -13.045 5.853 -13.045 13.045s5.853 13.045 13.045 13.045 13.045 -5.853 13.045 -13.045 -5.853 -13.045 -13.045 -13.045m0 20.285c-3.999 0 -7.24 -3.257 -7.24 -7.24s3.257 -7.24 7.24 -7.24c3.999 0 7.24 3.257 7.24 7.24s-3.241 7.24 -7.24 7.24" fill="#211F1E"/><path d="M156.638 107.521c-1.08 -5.031 -6.224 -16.98 -30.815 -20.237 -14.432 -1.919 -30.621 -7.401 -38.377 -17.06 -0.097 -0.161 -0.226 -0.306 -0.339 -0.435 -2.693 -3.515 -4.273 -7.546 -4.273 -12.158 0 -1.596 -1.29 -2.902 -2.902 -2.902 -1.596 0 -2.902 1.29 -2.902 2.902 0 0.581 0.016 1.161 0.065 1.725 -0.226 -0.016 -0.451 -0.032 -0.693 -0.032H35.233c-4.789 0 -8.691 3.902 -8.691 8.691v39.684c-1.725 1 -2.902 2.854 -2.902 4.983v5.789c0 3.193 2.596 5.789 5.789 5.789h124.598c3.193 0 5.789 -2.596 5.789 -5.789v-5.789c0.016 -2.258 -1.29 -4.192 -3.177 -5.16m-6.208 -0.645H122.389c0.597 -11.642 4.644 -13.497 4.692 -13.513 -0.097 0.048 -0.161 0.048 -0.161 0.048l-0.032 -0.097c16.754 2.661 21.946 9.594 23.543 13.561M32.331 67.999c0 -1.596 1.306 -2.902 2.902 -2.902h41.167c0.774 0 1.097 0.258 2.644 2.902 0.355 0.597 0.726 1.242 1.145 1.903q0.145 0.242 0.339 0.435c0.113 0.177 0.242 0.355 0.355 0.532l-4.596 2.757c-1.371 0.822 -1.822 2.596 -1 3.983 0.548 0.903 1.5 1.403 2.483 1.403 0.516 0 1.016 -0.129 1.483 -0.419l5.176 -3.112c1.419 1.516 2.999 2.919 4.708 4.241L85.14 84.64c-1.016 1.242 -0.822 3.064 0.419 4.08 0.532 0.435 1.177 0.645 1.822 0.645 0.839 0 1.677 -0.371 2.258 -1.08l4.322 -5.321c1.903 1.129 3.902 2.161 5.982 3.096l-2.661 5.595c-0.693 1.451 -0.065 3.177 1.371 3.854 0.403 0.194 0.822 0.274 1.242 0.274 1.08 0 2.128 -0.613 2.612 -1.661l2.806 -5.886c4.854 1.758 9.949 3.064 14.964 3.983 -1.758 2.806 -3.37 7.337 -3.709 14.609H32.331zm-2.902 50.471v-5.789h124.598v5.789z" fill="#211F1E"/></svg>